<svg xmlns="http://www.w3.org/2000/svg" viewBox="0 0 1233.26 632.46"><defs><style>.cls-1{fill:#005aa9;}.cls-2{font-size:35.09px;font-family:MonitorPro-Normal, Monitor Pro;}.cls-11,.cls-2{fill:#f4f2f1;}.cls-3{letter-spacing:0.01em;}.cls-4{letter-spacing:0.02em;}.cls-5{letter-spacing:-0.01em;}.cls-6{letter-spacing:0.01em;}.cls-7{letter-spacing:0em;}.cls-8{letter-spacing:-0.01em;}.cls-9{letter-spacing:0.02em;}.cls-10{letter-spacing:0.01em;}.cls-11{font-size:63.17px;font-family:MonitorPro-Bold, Monitor Pro;font-weight:700;}.cls-12{letter-spacing:0.01em;}.cls-13{letter-spacing:0em;}.cls-14{letter-spacing:0.01em;}</style></defs><title>MONITORPROHEAD</title><g id="Layer_2" data-name="Layer 2"><g id="Layer_1-2" data-name="Layer 1"><rect class="cls-1" y="3.53" width="1233.26" height="617"/><text class="cls-2" transform="translate(326.04 29.97)"><tspan class="cls-3">E</tspan><tspan class="cls-4" x="20.18" y="0">x</tspan><tspan x="37.16" y="0">t</tspan><tspan class="cls-5" x="49.8" y="0">r</tspan><tspan x="61.87" y="0">aBlack</tspan></text><text class="cls-2" transform="translate(326.04 76.75)">Thin</text><text class="cls-2" transform="translate(326.04 123.54)">L<tspan class="cls-6" x="17.97" y="0">i</tspan><tspan x="27.37" y="0">g</tspan><tspan class="cls-5" x="47.03" y="0">h</tspan><tspan x="67.24" y="0">t</tspan></text><text class="cls-2" transform="translate(326.04 170.32)">Nor<tspan class="cls-7" x="57.55" y="0">m</tspan><tspan class="cls-8" x="88.89" y="0">a</tspan><tspan x="108.02" y="0">l</tspan></text><text class="cls-2" transform="translate(326.04 217.1)">Med<tspan class="cls-8" x="67.52" y="0">i</tspan><tspan class="cls-7" x="76.26" y="0">u</tspan><tspan x="96.65" y="0">m</tspan></text><text class="cls-2" transform="translate(326.04 263.88)"><tspan class="cls-9">S</tspan><tspan x="18.81" y="0">emi</tspan><tspan class="cls-6" x="77.21" y="0">b</tspan><tspan x="97.28" y="0">o</tspan><tspan class="cls-10" x="116.65" y="0">l</tspan><tspan x="126.02" y="0">d </tspan></text><text class="cls-11" transform="translate(326.04 339.83)">Moni<tspan class="cls-12" x="151.23" y="0">t</tspan><tspan x="176.87" y="0">or p</tspan><tspan class="cls-13" x="294.87" y="0">r</tspan><tspan x="320.33" y="0">o.</tspan></text><text class="cls-2" transform="translate(326.04 386.62)">Bo<tspan class="cls-14" x="41.27" y="0">l</tspan><tspan x="50.68" y="0">d</tspan></text><text class="cls-2" transform="translate(326.04 433.41)"><tspan class="cls-3">E</tspan><tspan class="cls-4" x="20.18" y="0">x</tspan><tspan x="37.16" y="0">t</tspan><tspan class="cls-5" x="49.8" y="0">r</tspan><tspan x="61.87" y="0">aBo</tspan><tspan class="cls-10" x="122.51" y="0">l</tspan><tspan x="131.88" y="0">d</tspan></text><text class="cls-2" transform="translate(326.04 480.19)">Black</text><text class="cls-2" transform="translate(326.04 526.97)"><tspan class="cls-3">E</tspan><tspan class="cls-4" x="20.18" y="0">x</tspan><tspan x="37.16" y="0">t</tspan><tspan class="cls-5" x="49.8" y="0">r</tspan><tspan x="61.87" y="0">aBlack</tspan></text><text class="cls-2" transform="translate(326.04 573.75)">L<tspan class="cls-6" x="17.97" y="0">i</tspan><tspan x="27.37" y="0">g</tspan><tspan class="cls-5" x="47.03" y="0">h</tspan><tspan x="67.24" y="0">t</tspan></text><text class="cls-2" transform="translate(326.04 620.53)">Nor<tspan class="cls-7" x="57.55" y="0">m</tspan><tspan class="cls-8" x="88.89" y="0">a</tspan><tspan x="108.02" y="0">l</tspan></text></g></g></svg>